<?xml version="1.0" encoding="UTF-8"?>
<svg id="Layer_2" data-name="Layer 2" xmlns="http://www.w3.org/2000/svg" viewBox="0 0 124.03 211.96">
  <defs>
    <style>
      .cls-1 {
        stroke: #000;
        stroke-miterlimit: 10;
        stroke-width: 6px;
      }
    </style>
  </defs>
  <g id="Layer_3" data-name="Layer 3">
    <g>
      <path class="cls-1" d="m90.83,134.86c-8.57,4.45-16.11,2.43-23.35-2.24-1.97-1.27-2.48-2.74-1.42-4.1,1.26-1.62,2.68-1.27,4.21-.28,1.33.86,2.74,1.64,4.18,2.31,4.61,2.14,9.18,2.2,13.8-.17,11.03-5.66,18.08-14.76,22.51-26.04,4.95-12.61,5.86-25.76,4.6-39.13-1.73-18.38-7.3-35.83-13-53.25-.58-1.79-1.12-3.59-1.6-5.41-.42-1.62.04-2.97,1.75-3.44,1.72-.47,2.73.49,3.22,2.1,4.79,15.63,10.29,31.06,13.11,47.24,2.86,16.39,3.44,32.7-1.52,48.83-3.53,11.48-9.5,21.41-19.12,28.9-.8.63-1.16,1.39-1.4,2.35-5.96,24.4-12.09,48.75-16.58,73.48-.42,2.3-1.82,3.4-3.51,2.78-1.73-.63-1.94-2.02-1.64-3.56,1.05-5.47,2.08-10.95,3.22-16.41,3.68-17.57,7.95-35,12.19-52.44.08-.34.15-.68.33-1.52Z"/>
      <path class="cls-1" d="m18.43,115.54c1.56,7.88,3.11,15.53,4.6,23.19,3.65,18.83,7.09,37.7,9.22,56.78.38,3.38.5,6.79.73,10.18.12,1.77-.55,3.12-2.42,3.21-1.87.1-2.61-1.19-2.73-2.95-2.4-32.66-9.62-64.52-16.02-96.52-.22-1.08-.69-2.03-1.26-2.97-6.4-10.56-8.63-22.01-7.06-34.19C6.43,49.43,12.96,27.43,19.35,5.4c.48-1.64,1.44-2.73,3.33-2.28,1.61.39,2.21,1.83,1.61,3.85-4.89,16.51-9.51,33.1-13.01,49.97-1.41,6.81-2.82,13.64-3.02,20.6-.32,10.8,2.29,20.8,9.07,29.47,1.48,1.89,3.24,3.51,5.22,4.89,1.96,1.37,2.45,2.76,1.39,4.11-1.27,1.61-2.74,1.28-4.21.25-.33-.23-.71-.4-1.27-.71Z"/>
      <path class="cls-1" d="m61.97,14.02c-1.02,7.62-1.6,15.27-2.11,22.94-.11,1.62-.95,2.62-2.6,2.6-1.79-.02-2.66-1.18-2.57-2.85.44-7.89,1.1-15.75,2.14-23.59.21-1.56,1.28-2.52,2.9-2.28,1.72.26,2.37,1.5,2.23,3.18Z"/>
      <path class="cls-1" d="m50.06,103.25c0-1.37,0-2.75,0-4.12.02-2.55.86-3.71,2.63-3.67,1.7.04,2.46,1.13,2.52,3.57.11,5.13.21,10.27,1.14,15.34.33,1.77.73,3.51,1.83,5.04.93,1.29.77,2.68-.59,3.6-1.34.91-2.66.55-3.65-.68-1.8-2.22-2.36-4.93-2.82-7.64-.64-3.78-.95-7.6-1.07-11.44Z"/>
      <path class="cls-1" d="m59,56.76c-.09,1.58-.12,3.17-.3,4.74-.19,1.6-1.16,2.47-2.81,2.32-1.56-.14-2.29-1.16-2.26-2.65.05-2.74.14-5.47.3-8.21.1-1.65.97-2.78,2.75-2.66,1.78.12,2.42,1.32,2.38,2.99-.03,1.15,0,2.3,0,3.46-.02,0-.04,0-.06,0Z"/>
      <path class="cls-1" d="m42.48,117.75c-1.51.02-2.5-.57-2.81-1.97-.32-1.49.31-2.61,1.76-3,1.7-.46,3.2-1.19,4.66-2.15,1.22-.81,2.53-.64,3.45.58.85,1.12.78,2.36-.25,3.32-1.94,1.81-4.29,2.86-6.82,3.23Z"/>
    </g>
  </g>
</svg>