<?xml version="1.0" encoding="UTF-8"?>
<svg id="Layer_2" data-name="Layer 2" xmlns="http://www.w3.org/2000/svg" viewBox="0 0 202.35 217.13">
  <defs>
    <style>
      .cls-1 {
        fill: none;
        stroke: #000;
        stroke-linecap: round;
        stroke-linejoin: round;
        stroke-width: 7px;
      }
    </style>
  </defs>
  <g id="Layer_3" data-name="Layer 3">
    <g>
      <path class="cls-1" d="m24.96,165.71c-1.42-.1-2.42.84-3.48,1.52-2.71,1.76-5.36,3.61-7.99,5.48-1.27.9-2.54,1.37-4,.49"/>
      <path class="cls-1" d="m50.41,44.43c-1.59,4.39.85,8.59.65,12.98-.19,4.11.69,8.29,2.29,12.24.61,1.52.89,3.27.31,4.97"/>
      <path class="cls-1" d="m149.7,40.43c1.25,1.1,1.25,2.64.95,3.98-1.31,5.82.09,10.78,4.29,14.98"/>
      <path class="cls-1" d="m55.64,77.62c-2.02,3.43-5.63,3.87-8.99,4.71-1.53.38-3.04.83-4.75.35-1.62-.45-2.62,1.41-4.21,1.73-4.8.97-9.59,1.92-14.48,2.49-4.24.49-8.47.9-12.73.95"/>
      <path class="cls-1" d="m125,19.47c1.03,2.39-.28,4.6-.85,6.71-1.41,5.19-1.96,10.45-2.38,15.75-.04.5-.22,1.19.03,1.47,2.87,3.18,1.59,7.45,2.96,11.01"/>
      <path class="cls-1" d="m93.57,176.44c-.61,1.18-.77,2.42-.76,3.74.03,10.65.02,21.3.02,31.94"/>
      <path class="cls-1" d="m100.8,67.64c-1.09-.4-2.18-.8-3.27-1.2-3.83,1.52-6.45,4.98-10.39,6.58-1.78.72-1.58,3.58-2.54,5.36-1.81,3.35-2.04,7.19-3.21,10.74-.54,1.64.73,3.21.79,4.97.25,7.04,2.72,13.61,4.91,20.21.49,1.49,2.28,1.13,3.23,2"/>
      <path class="cls-1" d="m159.43,57.65c-2.2.71-4.14,1.51-5.56,3.7-3.27,5.06-8.69,6.94-14.16,8.5-1.87.53-3.66,1.3-5.72,1.38-1.74.07-2.99,1.8-4.72,2.47-4.33,1.68-8.57,3.64-12.71,5.75-.95.48-1.72.55-2.53.38-5.07-1-8.25.36-10.99,4.77-1.26,2.02-2.39,3.94-1.33,6.53.32.77-.64,1.97-.61,2.96.06,2.07.16,4.37,1.52,5.93,1.95,2.26,1.49,4.43.68,6.8"/>
      <path class="cls-1" d="m198.61,153.73c-1.16-6.12-4.26-10.62-10.49-12.45-.77-.23-1.12-.7-1.49-1.28-3.23-5.05-6.22-10.28-10-14.96-2.4-2.98-5.31-5.03-9.46-4.01"/>
      <path class="cls-1" d="m87.08,115.05c-.91.26-1.63.91-2.45,1.33-8.3,4.22-15.18,9.98-19.29,18.62-.73,1.53-1.59,3.12-3.21,4.01"/>
      <path class="cls-1" d="m66.62,79.37c-1.31-.3-1.94.54-2.49,1.5-.81,1.41-1.97,2.29-3.47,3.04-11.35,5.74-22.66,11.56-33.94,17.46-1.72.9-3.18.29-4.76-.04"/>
      <path class="cls-1" d="m149.45,109.31c-2.3.99-4.64.53-6.99.25-6.2-.74-12.19-.2-17.7,3.01-.96.56-1.91,1.06-3.01,1.23"/>
      <path class="cls-1" d="m42.67,148.49c4.08,3.36,6.74,7.45,6.49,12.98"/>
      <path class="cls-1" d="m23.96,47.42c-.35,2.49.52,4.34,2.45,6.04,2.47,2.17,4.75,4.56,7.25,6.73.71.62,1.57,1.14,2.28,1.14,3.6-.02,5.34,2.74,7.46,4.84,1.96,1.95,3.78,4.06,5.48,6.24.9,1.15,1.94,1.74,3.28,1.96,1.23.2,2.42.65,2.95,1.77.62,1.31,1.59,1.41,2.79,1.5,2.45.18,4.82.75,6.99,1.98"/>
      <path class="cls-1" d="m15.73,69.63c.99-.72,1.89-.06,2.74.27,6.55,2.51,12.83,5.6,18.94,9.01,1.46.81,3.25,1.61,3.52,3.69"/>
      <path class="cls-1" d="m58.39,114.55c-5.73,3.28-7.65,9.15-9.97,14.73-1.46,3.51-1.87,7.31-2.76,10.97-1.41,5.73-4.97,10.13-8.98,14.22-2.97,3.03-6.02,6-9.49,8.48-1.75,1.25-2.34,2.33-1.08,4.56,1.86,3.29,1.03,7.11.7,10.67-.1,1.1-.21,2.16-.11,3.26"/>
      <path class="cls-1" d="m163.93,110.06c-.03,3.27,1.81,6.06,2.43,9.2.39,1.97,0,3.71-.01,5.53-.01,2.93,0,5.93-1.17,8.73"/>
      <path class="cls-1" d="m127.5,3.5c-.07,1.75-.78,2.94-2.48,3.78-11.89,5.85-22.82,13.31-33.95,20.43-.51.32-.96.82-1.5.97-2.73.75-3.17,2.96-3.49,5.27"/>
      <path class="cls-1" d="m198.85,133.02c-.43-.4-.99-.26-1.36-1.2-2.09-5.32-4.71-10.38-9.62-13.76-1.16-.8-1.39-2.51-2.75-2.98-4.85-1.67-9.31-4.41-14.46-5.28-2.08-.35-4.12-1.16-6.24-.25-.33.14-.64-.03-1.02-.17-4.54-1.68-9.12-2.06-13.7-.07"/>
      <path class="cls-1" d="m17.97,106.82c.41,2.4,1.89,3.85,3.97,5.02,4.96,2.79,9.57,6.04,12.74,10.95"/>
      <path class="cls-1" d="m142.22,13.48c-4.6.51-9.35,1.21-13.36,3.22-3.07,1.53-6.39,2.32-9.36,3.99-2.69,1.51-5.27,2.98-7.29,5.46-1.13,1.4-3.24,1.59-4.75,2.97-5.29,4.84-10.04,10.21-12.94,16.65-1.56,3.47-4.9,6.49-4.2,10.89-2.93,3.27-2.87,7.57-4.08,11.45-.59,1.88-.18,3.25.59,4.77"/>
      <path class="cls-1" d="m160.93,63.89c-2,1.57-2.1,3.45-1.29,5.76.97,2.78,2.29,5.11,5.29,5.96,1.84.52,2.86,1.81,4.06,3.2,2.64,3.06,6.23,5.07,9.42,7.54,1.63,1.26,3.28,2.46,3.49,4.75"/>
      <path class="cls-1" d="m137.48,89.85c.43,2.28,2.42,3.42,3.79,4.95,3.91,4.33,6.52,9.29,8.49,14.75,1.98,5.47,3.45,11.02,4.46,16.74,1.72,9.68,2.25,19.39,1.77,29.21-.37,7.58-1.3,15.04-3.83,22.19-2.21,6.25-5.89,11.34-12.69,13.22-3.69,1.02-7.49.59-11.21.16-.68-.08-1.5-.32-2.26-.38-4.32-.3-7.75-3.01-11.72-4.27-5.77-1.82-10.55-5.53-15.72-8.47-1.27-.72-2.47-1.61-3.99-1.74-.25-.02-.61.11-.73-.02-6.09-6.26-14.09-10.2-20-16.68-3.83-4.19-7.46-8.49-10.23-13.49-.79-1.43-1.49-2.79-1.52-4.5-.03-1.56-.8-2.89-1.61-4.29-1.79-3.09-1.73-6.72-1.76-10.18-.03-2.66.65-5.32.89-7.99.07-.81.12-1.64-.18-2.5-1.12-3.2-.62-5.94,2.17-8.27,1.88-1.57,3.38-3.6,5.03-5.44,1.62-1.8,2.62-3.66,1.56-6.26-.66-1.62-.45-3.46-.07-5.22.52-2.38.29-4.83.68-7.25.3-1.84-1.36-3.27-2.05-5.11,3.99-3.67,3.03-8.73,3.58-13.35.58-4.81.85-9.65,1.33-14.46.03-.29.18-.66.2-1,.22-4.26-.68-8.44-.71-12.73-.05-6.17-3.73-11.11-8.52-14.96-5.81-4.67-12.74-6.16-19.95-6.75-1.41-.11-2.83-.17-4.24-.25"/>
      <path class="cls-1" d="m75.35,11.98c-.08,1.69.18,3.11,1.72,4.28,4.57,3.47,7.48,8.29,10.26,13.19"/>
      <path class="cls-1" d="m113.9,116.91c.47-1.3.3-2.74.96-4.01.15-.29,0-.79-.18-1.24-3.31-8.29-1.23-15.46,5.95-20.7,2.68-1.96,5.64-3.26,8.98-3.19,1.67.03,2.39-1.41,3.74-1.81,2.59-.78,5.22-1.5,7.72-2.52,3.02-1.23,5.75-1.01,8.78.22,6.84,2.78,13.94,4.78,21.17,6.36.61.13,1.28.32,1.74.15,3.24-1.19,5.87.15,8.51,1.78,3.24,2,6.79,3.39,10.22,5"/>
      <path class="cls-1" d="m80.84,89.6c-1.49-.06-2.52.77-3.49,1.75-1.74,1.75-3.63,3.39-5.18,5.29-.87,1.06-1.88,1.41-3.05,1.7"/>
      <path class="cls-1" d="m123.26,190.92c-1,3.26-.63,6.66-.94,9.99-.39,4.22-.39,8.48-.55,12.72"/>
      <path class="cls-1" d="m24.17,129.02c-.27,1.51-.04,2.98.16,4.49.63,4.73,1.47,9.54-.1,14.22-.58,1.73,0,3.04.52,4.5"/>
      <path class="cls-1" d="m163.93,23.71c-.47,1.39-1.68,1.03-2.73,1.29-8.91,2.2-15.46,7.53-19.96,15.44-3.85,6.76-6.33,14-7.52,21.7-.46,2.99-1.58,5.92-.47,8.99"/>
      <path class="cls-1" d="m112.03,26.96c1.89,2.69.75,5.5.22,8.23-.85,4.38-1.86,8.7-4.93,12.26-2.56,2.96-5.49,4.65-9.51,3.98-1.68-.28-2.88-1.41-4.24-2.26"/>
      <path class="cls-1" d="m184.63,48.92c-.01,1.51-.11,2.75-1.43,4.06-5.02,4.98-10.64,8.84-17.54,10.65-1.05.28-2.16.47-3.24.45-.44,0-1.37.03-1.47-.69-.33-2.4-1.94-4.66-.55-7.24,2.46-4.56,5.48-8.73,8.76-12.71,2.25-2.73,4.47-5.54,7.5-7.45,1.26-.79.93-2.06,1.47-3.04"/>
      <path class="cls-1" d="m160.06,11.49c-.21.33-.38.92-.63.96-8.25,1.22-14.45,5.88-19.96,11.76-4.87,5.19-8.66,11.07-11.76,17.46-.87,1.79-1.81,3.68-3.7,4.76"/>
      <path class="cls-1" d="m194.11,67.89c-2.29.13-4.17,1.12-6.01,2.46-4.73,3.44-10.3,4.44-15.95,4.97-1.49.14-2.76.54-3.99,1.3"/>
      <path class="cls-1" d="m53.15,110.06c-1.05,2.35-3.26,3.41-5.24,4.75-3.17,2.15-6.15,4.66-9.53,6.39-3.8,1.96-6.98,4.78-10.69,6.81-1.37.75-2.69,1.07-4.26.05-3.22-2.08-4.87-1.2-5.49,2.45-.72,4.24-3.11,7.73-5.76,10.94-2.24,2.71-4.56,5.45-7.68,7.29-1.16.68-.62,2.01-1,2.99"/>
      <path class="cls-1" d="m90.57,56.91c3.65,2.14,6.02,5.16,6.49,9.48"/>
      <path class="cls-1" d="m18.47,127.78c-3.12-2.16-6.21-.66-8.92.63-2.03.97-3.91,1.43-6.05,1.37"/>
      <path class="cls-1" d="m42.67,107.44c2.56-1.51,5.07-.01,7.17.79,2.98,1.14,6.11,1.67,9.05,2.83"/>
    </g>
  </g>
</svg>