<?xml version="1.0" encoding="UTF-8"?>
<svg id="Layer_2" data-name="Layer 2" xmlns="http://www.w3.org/2000/svg" viewBox="0 0 219.62 153.86">
  <defs>
    <style>
      .cls-1 {
        fill: none;
        stroke: #000;
        stroke-linecap: round;
        stroke-linejoin: round;
        stroke-width: 13px;
      }
    </style>
  </defs>
  <g id="Layer_3" data-name="Layer 3">
    <g>
      <path class="cls-1" d="m109.3,16.84v38.18"/>
      <path class="cls-1" d="m131.01,138.25c-14.06-.12-28.12-.37-42.17.11-.66.02-1.33-.15-2-.24"/>
      <path class="cls-1" d="m98.82,90.71c-.33,0-.73-.12-.99.02-8.06,4.43-17.12,7.19-23.49,14.43-4.65,5.29-7.75,11.2-8.74,18.24"/>
      <path class="cls-1" d="m153.52,128.89c-.21-7.31-2.04-13.97-6.28-19.97-3.43-4.86-7.68-8.76-12.99-11.46-4.14-2.11-8.33-4.13-12.45-6.28-.69-.36-1.31-.44-2.02-.46"/>
      <path class="cls-1" d="m24.68,75.73c-1.75,4.18-.32,8.28.61,12.22,2.96,12.53,5.81,25.1,8.31,37.72,1.42,7.15,2.37,14.41,3.15,21.69"/>
      <path class="cls-1" d="m24.96,74.99c2.33-.57,4.71-.43,6.98.05,6.15,1.31,12.21.73,18.22-.58,14.91-3.24,29.79-6.61,44.67-9.96,3.52-.79,6.68-2.35,9.24-4.98,1.24-1.27,2.56-2.43,3.96-3.54,1-.8,1.63-.9,2.55.02.91.92,2.13,1.56,2.95,2.54,3.87,4.59,9.26,5.81,14.74,6.98,10.24,2.18,20.45,4.57,30.7,6.69,7.1,1.47,14.05,3.8,21.45,3.56,3.61-.12,7.1-1.24,10.73-1.02.83.05,1.72-.36,2.47.37,2.01,4.07.69,8.27-.28,12.33-3.21,13.35-6.2,26.75-8.82,40.21-1.2,6.15-2,12.42-2.67,18.69"/>
      <path class="cls-1" d="m24.96,74.75h0c-10.08-8.55-16.53-20.66-17.84-33.82-1.08-10.87-1.07-26.24,2.93-34.43"/>
      <path class="cls-1" d="m194.67,74.75h0c10.08-8.55,16.53-20.66,17.84-33.82,1.08-10.87,1.07-26.24-2.93-34.43"/>
      <circle cx="43.55" cy="49.66" r="5.36"/>
      <circle cx="179.87" cy="49.66" r="5.36"/>
    </g>
  </g>
</svg>