<?xml version="1.0" encoding="UTF-8"?>
<svg id="Layer_2" data-name="Layer 2" xmlns="http://www.w3.org/2000/svg" viewBox="0 0 200.95 124.89">
  <defs>
    <style>
      .cls-1 {
        fill: none;
        stroke: #000;
        stroke-linecap: round;
        stroke-linejoin: round;
        stroke-width: 11px;
      }
    </style>
  </defs>
  <g id="Layer_3" data-name="Layer 3">
    <g>
      <path class="cls-1" d="m100.85,86.08v31.93"/>
      <path class="cls-1" d="m80.51,6c-1.28,1.21-.77,2.91-.78,4.24-.03,10.73-5.89,17.62-14.59,22.67-2.31,1.34-4.41,2.87-5.93,5.05-.56.8-1.13,1.07-2.03,1.25-6.62,1.33-13.4,1.65-19.97,3.22-15.05,3.58-25.41,14.11-28.03,29.92-1.42,8.54-.53,16.97-.22,25.46.22,6,.21,12.01-.92,17.97-.32,1.68-.72,3.08-2.53,3.61"/>
      <path class="cls-1" d="m121.19,5.5c1.35,1.48.77,3.3.87,4.99.27,4.73,1.23,9.24,4,13.22,2.31,3.33,5.34,5.85,8.74,7.99,2.97,1.87,6.15,3.51,7.99,6.73.38.67,1.07.63,1.74.77,6.61,1.37,13.39,1.68,19.98,3.21,14.85,3.44,25.05,13.59,27.94,28.95,1.35,7.2,1.17,14.42.58,21.71-.65,8.07-.6,16.18.93,24.19.16.83.53,1.42,1.5,1.37"/>
    </g>
  </g>
</svg>