<?xml version="1.0" encoding="UTF-8"?>
<svg id="Layer_2" data-name="Layer 2" xmlns="http://www.w3.org/2000/svg" viewBox="0 0 196.08 107.76">
  <defs>
    <style>
      .cls-1 {
        fill: none;
        stroke: #000;
        stroke-linecap: round;
        stroke-linejoin: round;
        stroke-width: 11px;
      }
    </style>
  </defs>
  <g id="Layer_3" data-name="Layer 3">
    <g>
      <path class="cls-1" d="m97.96,70.33v31.93"/>
      <path class="cls-1" d="m76.84,5.5c-.03,10.73-5.89,12.55-14.59,17.6-2.31,1.34-4.41,2.87-5.93,5.05-.56.8-1.13,1.07-2.03,1.25-6.62,1.33-13.4,1.65-19.97,3.22-15.05,3.58-25.41,14.11-28.03,29.92-1.42,8.54-.53,16.97-.22,25.46"/>
      <path class="cls-1" d="m119.17,5.75c.27,4.73,1.23,4.17,4,8.15,2.31,3.33,5.34,5.85,8.74,7.99,2.97,1.87,6.15,3.51,7.99,6.73.38.67,1.07.63,1.74.77,6.61,1.37,13.39,1.68,19.98,3.21,14.85,3.44,25.05,13.59,27.94,28.95,1.35,7.2,1.17,14.42.58,21.71"/>
    </g>
  </g>
</svg>