<?xml version="1.0" encoding="UTF-8"?>
<svg id="Layer_2" data-name="Layer 2" xmlns="http://www.w3.org/2000/svg" viewBox="0 0 157.54 206.84">
  <defs>
    <style>
      .cls-1 {
        fill: none;
        stroke: #000;
        stroke-linecap: round;
        stroke-linejoin: round;
        stroke-width: 10px;
      }
    </style>
  </defs>
  <g id="Layer_3" data-name="Layer 3">
    <g>
      <path class="cls-1" d="m83.79,45.93c1.02.53,1.81-.15,2.48-.65,8.59-6.31,18.43-9.42,28.77-11.17,1.7-.29,3.49-.04,5.24-.04"/>
      <path class="cls-1" d="m56.91,80.25c.36,1.46-.3,2.83-.35,4.24-.41,10.66,1.82,20.58,8.49,29.19.21.27.65.35.98.51"/>
      <path class="cls-1" d="m152.54,58.29c-9.29,4.65-19.29,6.71-29.5,7.98-8.88,1.11-17.81,1.38-26.75,1.25"/>
      <path class="cls-1" d="m126.04,5c-4.16.33-8.33.1-12.51.55-5.55.59-11.03,1.45-16.5,2.53-11.93,2.36-22.9,7.33-34,12-3.5,1.47-7.19,2.52-10.68,3.91-7.44,2.96-11.93,8.66-13.1,16.82-.44,3.09-.8,6.11-.5,9.25.53,5.58-.35,11.14-.53,16.72-.07,1.99-.14,4-.15,5.99-.05,8.24-.23,16.48.04,24.71.27,8.24.75,16.48,1.36,24.72.99,13.31,2.64,26.52,4.84,39.67.44,2.65,1.08,5.31.7,7.98-.6,4.19-3.08,7.33-6.22,9.98-8.67,7.34-18.66,11.92-29.75,14.23-3.13.65-4.25,1.86-4,4.24.18,1.77,1.58,3.57,4.75,3.54,13.17-.11,26.33-.06,39.5-.03,1.79,0,3.28-.49,4.77-1.48,2.2-1.45,4.67-1.62,6.96-.26,5.84,3.48,13.13,1.38,16.82-4.48,3.68-5.84,1.95-11.13-.8-16.51-1.37-2.69-3.25-5.04-5.32-7.17-1.11-1.14-1.2-2.24-1.19-3.56.1-12.65,1.43-25.17,3.06-37.71.72-5.53,3.43-9.7,5.94-14.2,7.4-13.31,9.46-27.44,7.08-42.44-1.01-6.38-3.04-12.1-7.33-16.96"/>
    </g>
  </g>
</svg>