<?xml version="1.0" encoding="UTF-8"?>
<svg id="Layer_2" data-name="Layer 2" xmlns="http://www.w3.org/2000/svg" viewBox="0 0 78.38 219.16">
  <g id="Layer_3" data-name="Layer 3">
    <path d="m64.77,14.4c-3,3.19-4.45,6.73-4.6,10.81-.04,1.06.07,2.12.05,3.18-.05,2.42-1.93,4.32-4.31,4.42-2.36.1-4.38-1.67-4.63-4.09-.66-6.32.74-12.13,4.39-17.37.43-.62.87-1.24,1.3-1.86.02-.03,0-.09,0-.39-2.69.28-5.36.55-8.03.84-9.64,1.06-19.29,2.13-28.93,3.2-1.16.13-2.32.2-3.47.37-2.86.42-4.8,1.98-5.74,4.73-.03.1-.05.2-.09.29-1.89,4.34-1.75,8.57-.05,13.03,1.94,5.08,3.25,10.39,5.03,15.54.86,2.48.91,4.92.66,7.45-1.5,15.12-3.51,30.17-5.26,45.26-1.31,11.3-1.6,102.77-1.17,114.14.1,2.66-1.29,4.66-3.56,5.08-2.31.43-4.43-.75-5.18-2.93-.16-.47-.23-.98-.25-1.48-.7-13.5.1-107.05,1.74-120.46,1.71-13.92,3.51-27.84,4.72-41.82.07-.78-.04-1.49-.27-2.22-2.1-6.63-4.16-13.28-6.28-19.91-.97-3.02-1.1-6.04-.25-9.09.57-2.04,1.08-4.1,1.81-6.08,2.53-6.82,7.68-9.98,14.76-10.71C29.8,3.04,42.46,1.63,55.11.16c8.74-1.01,15.19,2.88,18.15,11.18,1.34,3.75,2.67,7.51,4,11.26,2.3,6.48,1.07,12.21-3.71,17.16-4.91,5.09-9.84,10.17-14.8,15.21-.79.8-1.05,1.56-.97,2.66.91,14.13,3.27,28.06,5.85,41.95,2.11,11.34,3.35,102.88,3.14,114.43-.05,2.65-1.26,4.45-3.35,5-2.98.78-5.72-1.35-5.71-4.54.02-5.15-.09-90.41-.53-95.55-.74-8.71-2.3-17.3-3.91-25.88-2.28-12.17-3.8-24.43-4.67-36.77-.17-2.46.48-4.36,2.22-6.12,5.38-5.41,10.62-10.96,16-16.37,2.45-2.47,3.09-5.16,1.85-8.41-1.34-3.53-2.54-7.12-3.9-10.96Z"/>
  </g>
</svg>