<?xml version="1.0" encoding="UTF-8"?>
<svg id="Layer_2" data-name="Layer 2" xmlns="http://www.w3.org/2000/svg" viewBox="0 0 234.14 211.13">
  <defs>
    <style>
      .cls-1 {
        fill: none;
        stroke: #000;
        stroke-linecap: round;
        stroke-linejoin: round;
        stroke-width: 10px;
      }
    </style>
  </defs>
  <g id="Layer_3" data-name="Layer 3">
    <g>
      <path class="cls-1" d="m81.63,206.13v-2.17c-12.49-4.5-25.29-7.87-38.21-10.72-6.07-1.34-12.21-2.57-18.44-3.15-2.41-.22-4.78-.97-7.24-.94"/>
      <path class="cls-1" d="m161.62,96.83c-2.35,18.02-5.83,35.77-12.86,52.65-1.92,4.62-4.07,9.12-6.98,13.23"/>
      <path class="cls-1" d="m72.39,97.08c.67,4.08,1.36,8.15,1.99,12.23,1.8,11.57,4.62,22.89,8.52,33.93,2.41,6.83,5.31,13.47,9.46,19.47"/>
      <path class="cls-1" d="m216.41,189.16c-4.16.5-8.36.8-12.47,1.54-6.44,1.16-12.84,2.52-19.22,3.97-10.31,2.34-20.46,5.26-30.48,8.65-1.42.48-1.63,1.12-1.48,2.31"/>
      <path class="cls-1" d="m58.66,75.37c2.06-.14,3.47,1.28,4.97,2.28,9.67,6.41,20.35,10.76,30.99,15.14,4.71,1.94,9.56,3.63,14.47,4.97,6.43,1.76,12.93,1.26,19.19-.96,13.3-4.71,26.46-9.79,38.69-16.96,1.71-1,3.3-2.21,5.01-3.21,1.06-.62,2.12-1.4,3.48-1.27"/>
      <path class="cls-1" d="m32.96,5c.05,3.77,1.35,7.32,2.07,10.97,1.43,7.28,3.17,14.51,4.95,21.72,2.08,8.42,4.05,16.88,7.97,24.71,1.65,3.29,3.88,6.14,6.73,8.49.77.64,1.58,1.26,2.23,2.01.98,1.14,2.04,2.32.79,3.99-.53.71-.26,1.64-.26,2.48,0,14.64.23,29.28-.07,43.92-.34,16.76-7.83,29.67-22.71,37.57-7.64,4.06-15.92,6.93-23.9,10.35-1.92.82-3.83,1.66-5.74,2.49"/>
      <path class="cls-1" d="m201.18,5c-.05,3.77-1.35,7.32-2.07,10.97-1.43,7.28-3.17,14.51-4.95,21.72-2.07,8.42-4.13,16.85-7.95,24.72-1.68,3.46-4.3,6.13-7.04,8.69-1.01.94-1.89,1.94-2.77,2.98-.54.63-.95,1.08-.43,1.78.9,1.23.73,2.63.73,4,0,13.81.03,27.62,0,41.42-.02,10.3,2.57,19.65,8.93,28,4.87,6.39,11.11,10.8,18.31,13.86,5.97,2.53,12.02,4.89,17.95,7.55,2.38,1.07,4.82,2.01,7.23,3.01"/>
    </g>
  </g>
</svg>