<?xml version="1.0" encoding="UTF-8"?>
<svg id="Layer_2" data-name="Layer 2" xmlns="http://www.w3.org/2000/svg" viewBox="0 0 99.2 214.95">
  <defs>
    <style>
      .cls-1 {
        stroke: #000;
        stroke-miterlimit: 10;
        stroke-width: 3px;
      }
    </style>
  </defs>
  <g id="Layer_3" data-name="Layer 3">
    <g>
      <path class="cls-1" d="m96.53,75.24c-1.5-23.46-2.78-46.74-2.76-70.26,0-4.64-7.19-4.63-7.19,0-.01,22.33,1.03,44.46,2.53,66.74,1.38,20.52,4.41,44.37-4.74,63.56-.08.18-.13.35-.19.52-1.15,1.11-2.26,2.25-3.02,3.81-1.62,3.35-2.65,7.09-3.92,10.59-1.66,4.57-2.47,7.4-7.41,9.17-3.71,1.33-8.3,2.34-11.64-.4-3.55-2.91-8.67,2.15-5.09,5.09,4.31,3.53,10.64,4.49,16.41,3.24-3.16,6.46-5.69,13.2-7.39,20.2-1.83,7.51-3.56,15.89-1.17,23.44,1.39,4.4,8.34,2.52,6.94-1.91-2.14-6.76-.19-14.48,1.56-21.16,1.81-6.89,4.41-13.47,7.71-19.78.77-1.46.46-2.86-.34-3.88.82-.56,1.6-1.17,2.3-1.86,3.45-3.38,4.57-8.91,6.16-13.3,1.03-2.82,1.71-6.21,3.9-8.34,1.89-1.84,3.49-3.05,4.77-5.49.77-1.47.45-2.88-.35-3.89,5.82-17.81,4.11-37.72,2.94-56.1Z"/>
      <path class="cls-1" d="m29.67,177.47c-3.18-11.37-6.89-22.63-10.53-33.87-.23-.71-.62-1.25-1.08-1.64-.51-1.38-1.01-2.75-1.52-4.13-.3-.81-.83-1.5-1.49-1.97-.06-.19-.12-.39-.21-.58-9.15-19.19-6.12-43.05-4.74-63.56,1.5-22.28,2.54-44.4,2.53-66.74,0-4.63-7.19-4.64-7.19,0,.01,23.52-1.27,46.8-2.76,70.26-1.34,21.04-3.39,44.07,5.95,63.67.3.64.71,1.07,1.17,1.37.66,1.79,1.32,3.57,1.97,5.36.21.58.55,1.09.96,1.52,3.11,9.6,6.17,19.22,9.04,28.89,3.14,10.6,5.78,21.62,4.02,32.72-.72,4.53,6.21,6.48,6.94,1.91,1.79-11.29,0-22.29-3.06-33.21Z"/>
      <path class="cls-1" d="m49.02,153.68c-1.77-4.95-2.61-9.95-2.52-15.2.07-4.05-6.22-4.05-6.29,0-.03,1.86.05,3.7.23,5.53-.54.12-1.04.38-1.4.83-1.64,2.11-3.52,4-5.61,5.66-1.33,1.06-1.1,3.35,0,4.45,1.32,1.32,3.11,1.06,4.45,0,1.39-1.1,2.66-2.3,3.85-3.59.35,1.34.76,2.68,1.23,4,1.35,3.79,7.43,2.16,6.07-1.67Z"/>
    </g>
  </g>
</svg>