<?xml version="1.0" encoding="UTF-8"?>
<svg id="Layer_2" data-name="Layer 2" xmlns="http://www.w3.org/2000/svg" viewBox="0 0 209.5 195.39">
  <defs>
    <style>
      .cls-1 {
        fill: none;
        stroke: #000;
        stroke-linecap: round;
        stroke-linejoin: round;
        stroke-width: 10px;
      }
    </style>
  </defs>
  <g id="Layer_3" data-name="Layer 3">
    <g>
      <path class="cls-1" d="m31.25,41.93c-4.2.77-8.32,1.77-12.25,3.49-4.6,2.01-8.62,4.77-11.73,8.75-.55.71-1.24,1.43-1.01,2.48"/>
      <path class="cls-1" d="m178.25,41.93c4.2.77,8.32,1.77,12.25,3.49,4.6,2.01,8.62,4.77,11.73,8.75.55.71,1.24,1.43,1.01,2.48"/>
      <path class="cls-1" d="m184.25,125.26c4.62,4.54,8.21,10.07,13.49,13.98,1.62,1.2,3.21,2.45,4.74,3.75.66.56,1.28.58,2.02.36"/>
      <path class="cls-1" d="m104.62,17.17c.04.83.12,76.32.12,77.15,0,22.54,0,45.08,0,67.62"/>
      <path class="cls-1" d="m81.12,5c.17,5.17-1.5,9.88-3.63,14.47-1.13,2.43-2.34,4.82-3.49,7.24-.62,1.3-1.74,1.53-3,1.49-11.67-.37-20.19,5.36-27.26,13.97-2.55,3.11-5.4,5.94-8.74,8.24"/>
      <path class="cls-1" d="m189.12,101.81c.26,5.51.31,10.95-1.81,16.24-.97,2.41-1.83,5.17-3.45,6.83-3.82,3.9-7.44,8.03-11.57,11.66-6.91,6.06-14.55,11.39-19.77,19.18-.76,1.14-1.9,24.22-1.77,25.81"/>
      <path class="cls-1" d="m25.25,125.26c-2.59,2.75-5.06,5.6-7.54,8.45-3.04,3.48-6.68,6.34-10.45,9.03-.7.5-1.35.96-2.26.61"/>
      <path class="cls-1" d="m74,27.71c2.7,1.9,6.07,1.96,9.02,3.21,1.07.45,2.14,1.44,3.48.66"/>
      <path class="cls-1" d="m20.5,102.56c-.79,6.76.12,13.15,3.46,19.24,3.11,5.67,8.03,9.62,12.58,13.91,4.25,4,8.86,7.62,13.19,11.54,3.31,2.99,6.02,6.52,8.52,10.21.41.6.56,23.35.5,24.07"/>
      <path class="cls-1" d="m128.12,5c.43,6.92,2.89,13.19,6.13,19.21.32.59.82,1.13.97,1.75.48,1.92,1.85,2.31,3.53,2.23,8.5-.36,15.44,3.1,21.8,8.43,3.22,2.7,5.33,6.31,8.44,9.05,1.42,1.25,2.6,2.76,4.26,3.73,1.18.68,1.42,1.75,1.25,2.99"/>
      <path class="cls-1" d="m104.75,179.41v10.98"/>
      <path class="cls-1" d="m135.5,27.71c-2.59,1.97-5.92,1.9-8.78,3.18-1.28.57-2.62,1.52-4.22,1.07"/>
    </g>
  </g>
</svg>