<?xml version="1.0" encoding="UTF-8"?>
<svg id="Layer_2" data-name="Layer 2" xmlns="http://www.w3.org/2000/svg" viewBox="0 0 211.09 103.32">
  <defs>
    <style>
      .cls-1 {
        fill: none;
        stroke: #000;
        stroke-linecap: round;
        stroke-linejoin: round;
        stroke-width: 14px;
      }
    </style>
  </defs>
  <g id="Layer_3" data-name="Layer 3">
    <g>
      <path class="cls-1" d="m32.05,43.93c-4.2.77-8.32,1.77-12.25,3.49-4.6,2.01-8.62,4.77-11.73,8.75-.55.71-1.24,1.43-1.01,2.48"/>
      <path class="cls-1" d="m179.05,43.93c4.2.77,8.32,1.77,12.25,3.49,4.6,2.01,8.62,4.77,11.73,8.75.55.71,1.24,1.43,1.01,2.48"/>
      <path class="cls-1" d="m105.42,67.69c.04.83.12,27.81.12,28.64"/>
      <path class="cls-1" d="m81.92,7c.17,5.17-1.5,9.88-3.63,14.47-1.13,2.43-2.34,4.82-3.49,7.24-.62,1.3-1.74,1.53-3,1.49-11.67-.37-20.19,5.36-27.26,13.97-2.55,3.11-5.4,5.94-8.74,8.24"/>
      <path class="cls-1" d="m74.8,29.71c2.7,1.9,6.07,1.96,9.02,3.21,1.07.45,2.14,1.44,3.48.66"/>
      <path class="cls-1" d="m128.92,7c.43,6.92,2.89,13.19,6.13,19.21.32.59.82,1.13.97,1.75.48,1.92,1.85,2.31,3.53,2.23,8.5-.36,15.44,3.1,21.8,8.43,3.22,2.7,5.33,6.31,8.44,9.05,1.42,1.25,2.6,2.76,4.26,3.73,1.18.68,1.42,1.75,1.25,2.99"/>
      <path class="cls-1" d="m136.3,29.71c-2.59,1.97-5.92,1.9-8.78,3.18-1.28.57-2.62,1.52-4.22,1.07"/>
    </g>
  </g>
</svg>