<?xml version="1.0" encoding="UTF-8"?>
<svg id="Layer_2" data-name="Layer 2" xmlns="http://www.w3.org/2000/svg" viewBox="0 0 198.33 198.41">
  <defs>
    <style>
      .cls-1 {
        fill: none;
        stroke: #000;
        stroke-linecap: round;
        stroke-linejoin: round;
        stroke-width: 10px;
      }
    </style>
  </defs>
  <g id="Layer_3" data-name="Layer 3">
    <g>
      <path class="cls-1" d="m168.8,96.59c.45,12.89,1.28,25.77.98,38.68-.12,4.91-.48,9.82-.73,14.72"/>
      <path class="cls-1" d="m29.5,96.59c-.32,11.4-1.11,22.78-1.03,34.19.04,6.42.53,12.81.78,19.22"/>
      <path class="cls-1" d="m164.81,60.9c-2.69,3.89-4.75,8.24-8.01,11.7-5.86,6.21-12.98,9.41-21.69,8.26-6.24-.82-12.49-1.62-18.72-2.52-1.96-.28-3.86-.44-5.75.27-.82.31-1.35.13-2.17-.43-2.92-2-6.03-3.73-9.07-5.56"/>
      <path class="cls-1" d="m33.49,60.9c2.69,3.89,4.75,8.24,8.01,11.7,5.86,6.21,12.98,9.41,21.69,8.26,6.24-.82,12.49-1.62,18.72-2.52,1.96-.28,3.88-.49,5.74.29.95.4,1.52,0,2.28-.49,2.53-1.66,5.1-3.26,7.74-4.74,1.18-.67,1.52-1.44,1.52-2.78-.06-9.9-.03-19.8-.03-29.7"/>
      <path class="cls-1" d="m88.91,79.12c1.17,3.89.65,7.81.25,11.73-.4,3.83-.81,7.66-1.25,11.48-.57,4.99-1.12,9.99-1.76,14.97-.52,4.08-1.16,8.15-1.73,12.23-.67,4.74-1.17,9.51-2.03,14.22-1.63,8.86-3.2,17.72-5.42,26.47-1.98,7.8-4.41,15.44-7.21,23.07h-4.81"/>
      <path class="cls-1" d="m109.39,79.12c-1.07,4.08-.59,8.11-.1,12.24.45,3.72.73,7.48,1.12,11.22.51,4.92,1.11,9.82,1.74,14.72.53,4.08,1.16,8.15,1.73,12.23.68,4.82,1.14,9.69,2.04,14.47,1.64,8.69,3.21,17.39,5.39,25.98,1.99,7.88,4.42,15.6,7.21,23.32h4.84"/>
      <path class="cls-1" d="m20.51,5.25c-3.05,11.44-5.43,23.03-7.55,34.68-1.73,9.54-3.22,19.11-4.35,28.72-1.17,9.94-2.1,19.92-2.64,29.93-.5,9.4-.9,18.79-.97,28.2-.07,10.18.37,20.32,1.46,30.45,1.31,12.13,3.32,24.11,6.3,35.93"/>
      <path class="cls-1" d="m172.3,5h5.41c2.73,10.06,4.94,20.22,6.83,30.44,1.23,6.63,2.24,13.3,3.3,19.96,1.17,7.39,1.99,14.81,2.86,22.23.92,7.78,1.3,15.63,1.81,23.45.78,11.88.95,23.78.73,35.68-.15,8.1-.96,16.15-1.87,24.22-1.23,10.96-3.32,21.72-5.84,32.43h-3.24"/>
    </g>
  </g>
</svg>