<?xml version="1.0" encoding="UTF-8"?>
<svg id="Layer_2" data-name="Layer 2" xmlns="http://www.w3.org/2000/svg" viewBox="0 0 207.1 198.13">
  <defs>
    <style>
      .cls-1 {
        fill: #010101;
      }
    </style>
  </defs>
  <g id="Layer_2-2" data-name="Layer 2">
    <g>
      <path class="cls-1" d="m107.42,45.88c-3.62.96-7.12,1.9-10.62,2.82-4.91,1.29-9.82,2.54-14.72,3.87-9.97,2.7-18.74-5.46-18.29-14.19.31-6.14,1.55-12.25,2.65-18.33.66-3.64,1.74-7.21,2.8-10.75,1.53-5.09,6.82-9.75,13.17-9.25,7.76.61,15.57.97,23.26,2.07,7.35,1.05,14.65,2.63,21.83,4.51,5.98,1.56,10.42,5.64,14.03,10.59,9.69,13.25,19.06,26.73,27.06,41.08,5.33,9.56,10.42,19.27,15.15,29.14,4.62,9.65,8.71,19.55,12.89,29.4,1.73,4.08,3,8.35,4.68,12.45,1.34,3.27,3.35,6.3,4.44,9.64,4.83,14.83-3.78,31.94-20.26,35.16-6.08,1.19-12.09,2.82-18.04,4.56-2.67.78-5.14,2.29-7.66,3.53-11.34,5.59-23.22,9.66-35.55,12.28-6.74,1.43-13.62,2.44-20.48,2.99-7.34.59-14.77.93-22.11.47-13.29-.83-26.25-3.63-38.34-9.44-5.85-2.81-11.4-6.26-17.06-9.48-.84-.48-1.56-1.19-2.26-1.88-1.38-1.34-1.91-2.88-.56-4.54,1.27-1.57,2.89-2.17,4.75-1.05,3.72,2.26,7.33,4.69,11.1,6.85,8.07,4.62,16.83,7.42,25.82,9.69,11.43,2.88,23.04,2.71,34.63,2.34,5.81-.18,11.58-1.62,17.39-2.35,9.12-1.15,17.87-3.72,26.37-7.07,6.13-2.42,11.95-5.62,18.09-8,4.76-1.85,9.74-3.25,14.73-4.38,5.03-1.14,10.18-1.76,14.64-4.63,4.43-2.84,7.03-7.02,8.2-12,1.44-6.14-.27-11.66-3.21-17.24-2.99-5.67-4.78-11.96-7.3-17.89-3.68-8.69-7.36-17.38-11.36-25.93-3.44-7.34-7.22-14.52-11.03-21.67-6.84-12.85-14.63-25.11-23.08-36.95-3.27-4.58-6.59-9.11-10.07-13.53-3.5-4.45-8.78-5.71-13.92-6.68-8.44-1.6-16.96-2.84-25.47-4-3.58-.49-7.24-.46-10.87-.53-3.99-.08-6.09,1.35-7.12,5.25-1.19,4.52-2.18,9.11-3.02,13.71-.69,3.83-1.29,7.71-1.47,11.59-.23,5.04,4.11,8.56,8.93,7.35,6.33-1.59,12.58-3.51,18.91-5.09,3.83-.96,7.72-1.74,11.63-2.2.9-.11,2.66,1.29,2.91,2.27,4.51,17.65,8.85,35.35,13.22,53.04.51,2.06-.58,3.93-2.55,4.5-1.79.52-4.14-.81-4.61-2.69-3-11.96-5.98-23.92-8.96-35.89-1.09-4.38-2.14-8.77-3.3-13.52Z"/>
      <path class="cls-1" d="m50.25,112.68c7.69-7.37,16.64-12.17,26.9-14.06,9.84-1.81,19.48-.18,28.74,3.45,10.35,4.06,18.89,10.8,26.04,19.13,3.8,4.42,6.83,9.51,10.04,14.4,1.42,2.17.74,4.35-1.28,5.43-2.08,1.11-3.9.45-5.2-1.96-3.35-6.23-7.45-11.97-12.5-16.89-8.54-8.31-18.56-14.2-30.45-16.08-12.14-1.92-23.44.39-33.13,8.47-2.22,1.85-4.29,3.87-6.39,5.86-2.36,2.24-3.93,2.14-6.04-.29-5.85-6.73-13.45-10.64-21.85-13.04-3.33-.95-6.91-.96-10.33-1.61-3.62-.69-7.1-.21-10.63.51-2.43.5-3.91-1.1-4.17-3.09-.14-1.07,1.08-2.66,2.12-3.46,1.07-.83,2.64-1.3,4.03-1.38,7.65-.43,15.33-.12,22.66,2.13,6.98,2.14,13.47,5.51,18.91,10.6.71.66,1.57,1.17,2.53,1.87Z"/>
      <path d="m99.08,180.03c-3.39,0-8.44.22-13.47-.05-10.09-.54-19.86-2.75-29.36-6.17-1.8-.65-2.97-3.22-2.36-4.77.81-2.07,2.72-2.9,4.95-2.15,7.46,2.51,15,4.49,22.89,5.19,8.91.79,17.74.7,26.5-1.07,6.56-1.32,13.07-2.86,19.59-4.36,2.28-.52,4.48.46,5.21,2.5.6,1.68-.9,4.13-3.24,4.78-4.35,1.22-8.71,2.44-13.13,3.31-5.26,1.03-10.59,1.69-17.58,2.78Z"/>
    </g>
  </g>
</svg>