<?xml version="1.0" encoding="UTF-8"?>
<svg id="Layer_2" data-name="Layer 2" xmlns="http://www.w3.org/2000/svg" viewBox="0 0 270 286">
  <g id="Layer_1-2" data-name="Layer 1">
    <g>
      <path d="m131.55,62.69c0-4.58,0-9.17,0-13.75,0-4.91,2.09-7.62,5.89-7.65,3.83-.04,6.01,2.69,6.01,7.54,0,9.08,0,18.17,0,27.25,0,7.28,3.38,11.45,10.51,13.03,15.52,3.43,31.03,6.89,46.56,10.28,10.14,2.21,19.14-.09,26.87-7.11,2.91-2.64,6.54-2.63,8.86-.03,2.26,2.53,1.94,6.01-.84,8.66-.9.86-1.79,1.79-2.85,2.42-1.81,1.07-2.49,2.62-2.91,4.61-3.4,16.12-7.1,32.18-10.3,48.34-3.27,16.52-5.4,33.21-4.87,50.12.24,7.6,2.81,14.67,5.19,21.77.69,2.05,1.44,4.09,2.01,6.17.82,2.98-.82,6.07-3.63,7.06-2.99,1.05-6.33-.28-7.46-3.29-5.45-14.52-9.06-29.21-7.93-45.07,1.72-24.29,6.62-47.95,12.07-71.56.69-3,1.31-6.02,1.98-9.02.17-.77.48-1.65-.86-1.31-8.41,2.1-16.52.13-24.66-1.69-13.4-3-26.81-5.94-40.22-8.86-4.69-1.02-8.79-3.06-12.15-6.49-.93-.95-1.49-1.19-2.54-.09-3.45,3.59-7.74,5.62-12.6,6.67-15.94,3.44-31.87,6.95-47.79,10.46-5.29,1.16-10.59,1.25-15.87.16-1.81-.37-2.13-.16-1.72,1.72,2.95,13.75,6.36,27.4,8.99,41.22,2.82,14.83,4.55,29.79,5.15,44.88.36,8.91-.94,17.6-3.77,26.06-1.35,4.02-2.65,8.06-4.04,12.07-1.26,3.61-4.3,5.26-7.6,4.22-3.2-1.01-4.69-4.3-3.58-7.91,2.03-6.59,4.67-13,6.05-19.8,1.88-9.28.96-18.59.24-27.89-1.79-23.09-7.49-45.46-12.45-67.96-.38-1.71-.87-3.4-1.1-5.12-.63-4.8-1.97-8.94-6.44-11.9-3.27-2.16-3.27-6.18-.89-8.73,2.38-2.54,5.91-2.45,8.87.24,7.59,6.88,16.45,9.21,26.4,7.07,15.78-3.39,31.54-6.9,47.29-10.4,6.65-1.48,10.11-5.84,10.13-12.6.02-4.58,0-9.17,0-13.75Z"/>
      <path d="m143.44,214.99c0,2.83.04,5.67,0,8.5-.06,3.78-2.48,6.42-5.85,6.48-3.46.06-5.99-2.65-6.02-6.55-.04-5.66-.07-11.33.02-16.99.03-1.72-.44-2.32-2.22-2.28-4.66.11-9.33.07-13.99.02-3.91-.04-6.39-2.32-6.43-5.78-.04-3.59,2.47-5.93,6.51-5.95,4.75-.03,9.5-.05,14.24.02,1.38.02,1.91-.37,1.89-1.82-.07-4.75-.1-9.5.01-14.24.04-1.65-.62-1.91-2.05-1.89-4.25.08-8.5.05-12.74.02-3.86-.03-6.35-2.35-6.37-5.85-.02-3.47,2.43-5.87,6.3-5.95,4.25-.09,8.5-.09,12.74,0,1.63.04,2.15-.47,2.12-2.11-.1-5-.05-10-.03-14.99.02-4.19,2.36-6.79,6.02-6.74,3.54.04,5.83,2.6,5.86,6.67.03,4.83.15,9.67-.05,14.49-.09,2.32.72,2.79,2.82,2.7,3.91-.15,7.83-.08,11.74-.03,4.21.05,6.76,2.42,6.67,6.09-.09,3.54-2.62,5.7-6.76,5.72-4.17.02-8.33.07-12.49-.03-1.56-.04-1.98.49-1.95,1.99.08,4.66.08,9.33,0,13.99-.03,1.53.45,2.01,1.99,1.98,4.66-.09,9.33-.05,13.99-.02,4.11.02,6.64,2.24,6.68,5.79.04,3.65-2.52,5.93-6.77,5.95-4.58.03-9.16.06-13.74-.02-1.57-.03-2.24.37-2.15,2.09.14,2.91.04,5.83.04,8.75Z"/>
      <path d="m85.9,185.72c.5-9.65.84-19.31,1.54-28.95,1.1-15.21,8.52-26.53,21.81-33.94,4.36-2.43,8.89-4.54,13.37-6.74,3.4-1.67,6.82-.65,8.36,2.4,1.55,3.06.34,6.38-3.05,8.13-4.07,2.1-8.2,4.07-12.26,6.18-10.34,5.36-15.92,13.95-16.56,25.52-1.02,18.38-1.8,36.78-2.69,55.16-.05,1.08-.11,2.17-.26,3.24-.46,3.43-3.05,5.57-6.36,5.31-3.14-.24-5.44-2.72-5.31-6.11.36-8.99.85-17.97,1.29-26.96.05-1.08.13-2.16.19-3.24-.02,0-.05,0-.07,0Z"/>
      <path d="m189.02,183.9c.57,11.94,1.1,22.01,1.5,32.08.13,3.37-2.22,5.84-5.37,6.06-3.32.23-5.87-1.94-6.31-5.37-.08-.66-.14-1.33-.18-1.99-.56-11.48-1.09-22.96-1.68-34.44-.42-8.32-.56-16.67-1.48-24.93-1.12-10.05-6.68-17.4-15.54-22.19-4.1-2.21-8.34-4.16-12.49-6.26-3.72-1.88-5.06-5.22-3.41-8.4,1.61-3.11,4.99-4,8.61-2.21,4.18,2.06,8.4,4.05,12.49,6.27,13.64,7.39,21.28,18.81,22.41,34.33.7,9.63,1.04,19.3,1.45,27.07Z"/>
    </g>
  </g>
</svg>